<svg width="50" height="49" viewBox="0 0 50 49" fill="none" xmlns="http://www.w3.org/2000/svg">
<rect x="0.75" y="0.75" width="48.5" height="47.5" rx="23.75" stroke="#090909" stroke-width="1.5"/>
<path d="M19.4697 29.4697C19.1768 29.7626 19.1768 30.2374 19.4697 30.5303C19.7626 30.8232 20.2374 30.8232 20.5303 30.5303L19.4697 29.4697ZM30.6495 20.1005C30.6495 19.6863 30.3137 19.3505 29.8995 19.3505L23.1495 19.3505C22.7353 19.3505 22.3995 19.6863 22.3995 20.1005C22.3995 20.5147 22.7353 20.8505 23.1495 20.8505H29.1495V26.8505C29.1495 27.2647 29.4853 27.6005 29.8995 27.6005C30.3137 27.6005 30.6495 27.2647 30.6495 26.8505L30.6495 20.1005ZM20.5303 30.5303L30.4298 20.6308L29.3692 19.5702L19.4697 29.4697L20.5303 30.5303Z" fill="#090909"/>
</svg>
