<svg width="136" height="136" viewBox="0 0 136 136" fill="none" xmlns="http://www.w3.org/2000/svg">
<g filter="url(#filter0_d_9_36)">
<rect x="4" width="128" height="128" rx="24" fill="#3C3C3C" shape-rendering="crispEdges"/>
<rect x="41.25" y="36.5" width="66" height="46" rx="4" stroke="white" stroke-width="4"/>
<rect x="26.75" y="43.5" width="70" height="50" rx="6" fill="white"/>
<path d="M61.3558 84.4178C60.7623 84.4178 60.2609 84.2085 59.8516 83.7899C59.4423 83.3714 59.2376 82.8481 59.2376 82.2203V79.8972L60.1586 80.7448C58.7874 80.682 57.6004 80.5041 56.5976 80.2111C55.5947 79.9181 54.7761 79.6251 54.1417 79.3321C53.6096 79.0809 53.2309 78.7252 53.0058 78.2647C52.8012 77.8043 52.7193 77.3334 52.7602 76.852C52.8216 76.3707 52.9956 75.9312 53.2821 75.5335C53.5686 75.1359 53.937 74.8742 54.3873 74.7487C54.858 74.6022 55.4003 74.665 56.0143 74.937C56.4236 75.1672 57.0376 75.4079 57.8562 75.6591C58.6953 75.8893 59.7288 76.0044 60.9568 76.0044C61.8163 76.0044 62.4917 75.9207 62.9829 75.7533C63.4945 75.5858 63.8527 75.3661 64.0573 75.094C64.2824 74.801 64.395 74.4871 64.395 74.1522C64.395 73.8383 64.3131 73.5767 64.1494 73.3674C64.0062 73.1372 63.7606 72.9383 63.4126 72.7709C63.0647 72.5825 62.5838 72.4151 61.9698 72.2686L58.5009 71.5152C56.5976 71.0757 55.1752 70.3431 54.2338 69.3176C53.3128 68.2712 52.8523 66.9213 52.8523 65.2679C52.8523 64.0122 53.1491 62.8925 53.7426 61.9088C54.3566 60.9042 55.2059 60.088 56.2906 59.4601C57.3957 58.8323 58.6851 58.4346 60.1586 58.2672L59.2376 58.8009V56.6975C59.2376 56.0697 59.4423 55.5464 59.8516 55.1279C60.2609 54.7093 60.7623 54.5 61.3558 54.5C61.9698 54.5 62.4815 54.7093 62.8908 55.1279C63.3001 55.5464 63.5047 56.0697 63.5047 56.6975V58.8009L62.5838 58.2044C63.3615 58.2253 64.2006 58.3614 65.1011 58.6125C66.0016 58.8427 66.7895 59.1671 67.4649 59.5857C67.9356 59.8369 68.263 60.1822 68.4472 60.6217C68.6519 61.0612 68.7235 61.5112 68.6621 61.9716C68.6212 62.4111 68.4574 62.8088 68.1709 63.1645C67.9049 63.5203 67.5365 63.761 67.0658 63.8866C66.6155 63.9912 66.0732 63.9075 65.4388 63.6354C64.968 63.4262 64.4359 63.2587 63.8424 63.1332C63.2694 62.9867 62.5326 62.9134 61.6321 62.9134C60.5474 62.9134 59.7083 63.1122 59.1148 63.5099C58.5418 63.9075 58.2553 64.4203 58.2553 65.0481C58.2553 65.4667 58.419 65.8225 58.7465 66.1155C59.0944 66.3876 59.7186 66.6283 60.6191 66.8376L64.1187 67.6224C66.063 68.0619 67.4956 68.7944 68.4165 69.8199C69.3579 70.8245 69.8287 72.1326 69.8287 73.7441C69.8287 74.9998 69.5319 76.109 68.9384 77.0718C68.3449 78.0345 67.516 78.8193 66.4518 79.4263C65.4081 80.0332 64.1903 80.4309 62.7987 80.6192L63.5047 79.8658V82.2203C63.5047 82.8481 63.3001 83.3714 62.8908 83.7899C62.5019 84.2085 61.9903 84.4178 61.3558 84.4178Z" fill="#3C3C3C"/>
</g>
<defs>
<filter id="filter0_d_9_36" x="0" y="0" width="136" height="136" filterUnits="userSpaceOnUse" color-interpolation-filters="sRGB">
<feFlood flood-opacity="0" result="BackgroundImageFix"/>
<feColorMatrix in="SourceAlpha" type="matrix" values="0 0 0 0 0 0 0 0 0 0 0 0 0 0 0 0 0 0 127 0" result="hardAlpha"/>
<feOffset dy="4"/>
<feGaussianBlur stdDeviation="2"/>
<feComposite in2="hardAlpha" operator="out"/>
<feColorMatrix type="matrix" values="0 0 0 0 0 0 0 0 0 0 0 0 0 0 0 0 0 0 0.25 0"/>
<feBlend mode="normal" in2="BackgroundImageFix" result="effect1_dropShadow_9_36"/>
<feBlend mode="normal" in="SourceGraphic" in2="effect1_dropShadow_9_36" result="shape"/>
</filter>
</defs>
</svg>
