<svg width="128" height="128" viewBox="0 0 128 128" fill="none" xmlns="http://www.w3.org/2000/svg">
<rect width="128" height="128" rx="24" fill="#3C3C3C"/>
<path fill-rule="evenodd" clip-rule="evenodd" d="M49 35C49 31.6863 51.6863 29 55 29H73C76.3137 29 79 31.6863 79 35V43C79 46.3137 76.3137 49 73 49H67V64H89V69V70V82H93C96.3137 82 99 84.6863 99 88V93C99 96.3137 96.3137 99 93 99H89H83H79C75.6863 99 73 96.3137 73 93V88C73 84.6863 75.6863 82 79 82H83V70L45 70V82H49C52.3137 82 55 84.6863 55 88V93C55 96.3137 52.3137 99 49 99H45H39H35C31.6863 99 29 96.3137 29 93V88C29 84.6863 31.6863 82 35 82H39V70V69V64L61 64L61 49H55C51.6863 49 49 46.3137 49 43V35Z" fill="white"/>
</svg>
