<svg xmlns="http://www.w3.org/2000/svg" width="490" height="914" viewBox="0 0 490 914" fill="none">
<g opacity="0.35">
<path fill-rule="evenodd" clip-rule="evenodd" d="M478.366 329.399L521.339 290.194L520.323 289.266L477.349 328.472C465.483 339.298 459.405 350.155 459.128 360.892C458.853 371.586 463.056 380.898 471.387 388.499C482.552 398.684 498.443 403.034 512.726 397.145C504.752 410.399 506.878 425.973 519.217 437.23C527.707 444.976 537.913 448.812 549.637 448.561C561.72 448.313 573.621 442.77 585.489 431.942L631.1 390.33L630.084 389.403L584.473 431.015C572.76 441.701 561.19 447.014 549.601 447.251C538.285 447.494 528.454 443.806 520.231 436.305C507.777 424.942 506.136 409.068 515.175 395.931L516.626 393.822L514.224 395.006C500.092 401.971 483.807 397.979 472.402 387.574C464.341 380.22 460.298 371.252 460.564 360.926C460.828 350.643 466.651 340.087 478.366 329.399ZM507.456 320.701L489.802 378.284L550.507 362.793L533.528 418.176L596.644 402.069L574.408 381.784L573.394 382.709L593.893 401.41L535.599 416.286L551.904 363.103L569.329 379L570.343 378.075L533.756 344.696L532.742 345.621L550.167 361.519L491.873 376.394L508.178 323.211L528.677 341.912L529.691 340.987L507.456 320.701Z" fill="url(#paint0_linear_7695_372)"/>
<path fill-rule="evenodd" clip-rule="evenodd" d="M220.967 89.5044L468.065 -135.929L467.049 -136.856L219.951 88.5773C152.08 150.498 117.711 212.187 116.097 272.798C114.484 333.367 138.207 386.035 185.394 429.084C224.705 464.948 274.191 487.92 325.343 492.243C332.533 492.85 340.704 496.05 348.922 500.983C357.131 505.91 365.335 512.534 372.585 519.926C379.835 527.318 386.115 535.461 390.487 543.416C394.864 551.381 397.298 559.104 396.935 565.674C394.105 616.868 415.06 667.91 459.943 708.858C508.05 752.747 565.779 774.392 632.17 772.92C700.42 771.475 768.038 740.121 835.911 678.199L1098.17 438.93L1097.16 438.003L834.895 677.272C767.177 739.053 699.889 770.176 632.134 771.611L632.133 771.611C566.15 773.073 508.796 751.577 460.957 707.933C416.35 667.237 395.561 616.551 398.369 565.742C398.75 558.856 396.203 550.897 391.77 542.831C387.332 534.754 380.974 526.516 373.654 519.053C366.334 511.591 358.038 504.887 349.71 499.889C341.392 494.897 332.992 491.574 325.473 490.938C274.701 486.648 225.516 463.838 186.408 428.159C139.493 385.357 115.929 333.033 117.532 272.833C119.135 212.676 153.247 151.287 220.967 89.5044Z" fill="url(#paint1_linear_7695_372)"/>
<path fill-rule="evenodd" clip-rule="evenodd" d="M481.114 283.93C474.669 291.166 464.093 302.842 444.491 323.403L444.458 323.437L444.431 323.476C433.487 338.855 430.148 353.552 434.247 367.235L434.254 367.258L434.262 367.28C438.004 377.009 444.488 384.861 452.666 390.082C461.042 395.43 468.99 402.075 475.225 409.443C475.658 409.955 476.104 410.458 476.563 410.95C488.694 423.985 505.163 442.631 516.2 456.436C519.615 460.708 524.068 464.568 529.552 467.815L529.577 467.83L529.602 467.842C542.814 474.362 557.347 475.235 573.087 470.328C574.99 469.735 576.772 468.889 578.44 467.912L617.458 445.061C619.227 444.025 620.869 442.818 622.355 441.462L673.559 394.748L672.543 393.82L621.339 440.535C619.925 441.825 618.363 442.973 616.68 443.958L577.663 466.81C576.067 467.744 574.389 468.537 572.62 469.089C557.228 473.887 543.125 473.02 530.308 466.703C524.974 463.541 520.661 459.795 517.36 455.666C506.295 441.826 489.801 423.153 477.656 410.104C477.213 409.627 476.781 409.14 476.36 408.644C470.025 401.156 461.965 394.423 453.488 389.01C445.581 383.961 439.276 376.35 435.625 366.87C431.676 353.657 434.85 339.364 445.608 324.229C465.199 303.68 475.777 292.002 482.229 284.757C483.615 283.2 484.809 281.851 485.859 280.663C489.714 276.306 491.636 274.133 494.03 271.948L493.014 271.021C490.561 273.259 488.579 275.5 484.711 279.873C483.665 281.055 482.482 282.394 481.114 283.93Z" fill="url(#paint2_linear_7695_372)"/>
<path fill-rule="evenodd" clip-rule="evenodd" d="M473.72 250.846C468.579 252.024 463.785 254.404 460.296 258.108C455.595 263.099 451.015 268.921 444.065 277.811C443.797 278.154 443.526 278.501 443.251 278.853C436.382 287.639 427.212 299.37 413.506 316.066C412.251 317.596 411.132 319.273 410.306 321.052C401.514 339.988 401.317 357.612 409.386 373.495L409.396 373.516L409.408 373.536C415.653 383.868 424.346 392.061 434.386 397.341C448.786 404.915 463.254 417.591 471.784 430.593C475.368 436.055 480.078 440.881 485.771 444.774C495.577 451.48 503.889 460.795 508.882 470.994C514.494 482.457 524.843 492.192 539.871 498.364L539.902 498.377L539.934 498.387C559.374 504.437 580.051 501.78 601.939 490.261L601.972 490.243L652.992 456.221C654.21 455.409 655.358 454.512 656.426 453.538L716.022 399.167L715.005 398.24L655.409 452.611C654.394 453.537 653.302 454.39 652.143 455.163L601.186 489.144C579.595 500.498 559.371 503.043 540.427 497.157C525.72 491.109 515.649 481.606 510.193 470.462C505.095 460.051 496.625 450.561 486.63 443.726C481.091 439.938 476.505 435.241 473.016 429.922C464.353 416.718 449.702 403.886 435.101 396.206C425.314 391.059 416.805 383.056 410.678 372.926C402.817 357.436 402.971 340.21 411.628 321.565C412.401 319.902 413.455 318.316 414.656 316.853C428.372 300.145 437.55 288.404 444.42 279.615C444.695 279.263 444.966 278.916 445.234 278.573C452.195 269.669 456.735 263.9 461.385 258.963C464.647 255.5 469.162 253.242 474.073 252.116L538.204 237.416L537.852 236.145L473.72 250.846Z" fill="url(#paint3_linear_7695_372)"/>
<path fill-rule="evenodd" clip-rule="evenodd" d="M443.049 232.47C440.036 233.779 437.258 235.537 434.959 237.774C422.826 249.573 414.121 262.214 398.419 285.017C393.357 292.368 387.568 300.774 380.703 310.549C379.412 312.388 378.329 314.39 377.622 316.5C369.835 339.747 372.301 361 384.517 379.708L384.527 379.724L384.539 379.74C393.39 391.679 404.944 400.949 417.846 406.612C436.333 414.726 456.452 433.148 464.969 450.165C469.882 459.981 477.595 468.654 487.807 475.284C494.635 479.718 500.188 485.731 503.729 492.654C512.177 509.171 527.701 522.281 550.167 528.888L550.196 528.897L550.227 528.903C575.099 534.107 600.986 528.245 627.97 511.122L627.989 511.111L689.52 466.5L758.483 403.583L757.467 402.656L688.561 465.52L627.13 510.059C600.397 527.017 574.935 532.72 550.575 527.632C528.495 521.132 513.301 508.272 505.03 492.102C501.381 484.969 495.664 478.78 488.637 474.218C478.633 467.722 471.083 459.23 466.275 449.623C457.614 432.318 437.247 413.675 418.466 405.432C405.819 399.881 394.459 390.779 385.739 379.023C373.761 360.669 371.317 339.809 378.995 316.886C379.657 314.909 380.678 313.015 381.912 311.257C388.817 301.426 394.627 292.99 399.698 285.626C415.366 262.873 423.976 250.371 436.007 238.671C438.169 236.568 440.795 234.902 443.669 233.652L530.508 195.906L529.888 194.723L443.049 232.47Z" fill="url(#paint4_linear_7695_372)"/>
<path fill-rule="evenodd" clip-rule="evenodd" d="M414.014 214.611C412.115 215.69 410.345 216.96 408.781 218.433C387.223 238.73 374.837 259.578 351.575 298.731C350.298 300.881 348.988 303.086 347.642 305.349C346.49 307.286 345.572 309.369 345.03 311.537C338.107 339.246 343.2 364.263 359.638 385.904L359.657 385.928C371.429 400.029 386.415 410.715 402.841 416.77C413.49 420.695 425.096 428.554 434.994 437.949C444.893 447.343 453.019 458.213 456.765 468.111C462.187 482.433 472.324 495.326 486.791 505.164C491.523 508.382 495.473 512.492 498.298 517.213C510.722 537.977 531.512 553.251 560.444 559.405L560.469 559.41L560.495 559.414C590.793 563.778 621.891 554.721 653.98 531.998L654.002 531.982L724.213 478.007L800.943 408.003L799.927 407.076L723.239 477.04L653.098 530.963C653.094 530.965 653.09 530.968 653.086 530.971C621.22 553.533 590.523 562.406 560.741 558.123C532.221 552.051 511.781 537.015 499.558 516.588C496.631 511.696 492.542 507.442 487.648 504.114C473.41 494.433 463.449 481.756 458.123 467.685C454.286 457.549 446.016 446.521 436.028 437.042C426.04 427.562 414.271 419.571 403.377 415.555C387.216 409.598 372.438 399.072 360.808 385.147C344.622 363.831 339.592 339.2 346.43 311.831C346.938 309.797 347.804 307.825 348.904 305.976C350.232 303.743 351.525 301.568 352.785 299.447C376.102 260.201 388.395 239.51 409.813 219.346C411.289 217.957 412.965 216.751 414.775 215.724L522.747 154.409L521.986 153.297L414.014 214.611Z" fill="url(#paint5_linear_7695_372)"/>
<path fill-rule="evenodd" clip-rule="evenodd" d="M385.713 196.762C384.46 197.591 383.271 198.513 382.182 199.524C352.904 226.701 337.448 254.091 314.466 300.384C313.535 302.26 312.824 304.249 312.436 306.292C306.304 338.574 314.024 367.446 334.755 392.086L334.77 392.104C349.781 408.73 368.68 421.012 389.137 427.356C400.819 430.979 414.01 439.819 425.072 450.54C436.135 461.263 444.973 473.775 448.041 484.669C453.409 503.735 465.632 521.241 484.294 534.724C487.596 537.109 490.452 539.981 492.701 543.225C509.746 567.802 535.858 584.592 570.71 589.913L570.73 589.916L570.751 589.918C606.472 593.447 642.784 581.2 679.98 552.878L679.995 552.866L758.905 489.513L843.405 412.422L842.389 411.495L757.921 488.556L679.059 551.871C679.057 551.873 679.054 551.875 679.052 551.877C642.058 580.043 606.13 592.09 570.923 588.618C536.491 583.356 510.74 566.788 493.914 542.526C491.576 539.155 488.61 536.172 485.184 533.697C466.763 520.389 454.72 503.128 449.431 484.346C446.279 473.153 437.267 460.45 426.117 449.644C414.966 438.836 401.583 429.834 389.596 426.116C369.421 419.859 350.743 407.733 335.886 391.281C315.415 366.944 307.786 338.45 313.85 306.519C314.215 304.598 314.886 302.715 315.774 300.927C338.75 254.646 354.12 227.442 383.207 200.443C384.236 199.488 385.364 198.613 386.557 197.824L514.959 112.92L514.115 111.859L385.713 196.762Z" fill="url(#paint6_linear_7695_372)"/>
<path fill-rule="evenodd" clip-rule="evenodd" d="M356.761 180.441L356.733 180.466C320.262 213.739 301.551 246.852 281.511 296.261C280.823 297.957 280.316 299.734 280.053 301.537C274.682 338.464 285.041 371.248 310.117 398.926L310.129 398.939C328.663 418.357 351.892 432.339 376.786 438.817C389.244 442.06 403.732 451.68 415.723 463.48C427.715 475.282 437.082 489.138 439.431 500.75C444.293 524.783 458.365 547.248 481.245 564.725C483.543 566.481 485.599 568.496 487.339 570.719C509.337 598.835 540.773 616.772 581.215 621.083L581.247 621.087C622.39 623.784 663.918 608.349 706.224 574.426L706.234 574.419L793.858 501.676L886.116 417.506L885.1 416.579L792.853 500.738L705.275 573.442C705.274 573.443 705.272 573.444 705.27 573.446C663.153 607.215 621.995 622.439 581.363 619.781C541.342 615.51 510.272 597.778 488.507 569.96C486.694 567.643 484.555 565.547 482.165 563.722C459.535 546.435 445.643 524.238 440.843 500.515C438.422 488.551 428.849 474.473 416.775 462.591C404.699 450.707 389.994 440.893 377.177 437.558C352.581 431.157 329.586 417.331 311.217 398.086C286.404 370.696 276.158 338.281 281.477 301.712C281.724 300.014 282.203 298.333 282.858 296.718C302.857 247.41 321.473 214.497 357.721 181.419L507.406 72.1039L506.507 71.0806L356.761 180.441Z" fill="url(#paint7_linear_7695_372)"/>
<path fill-rule="evenodd" clip-rule="evenodd" d="M329.197 161.535L329.178 161.553C286.51 200.479 264.678 239.223 248.086 290.928C247.626 292.36 247.297 293.842 247.131 295.333C242.506 336.952 255.516 373.687 284.978 404.427L284.986 404.436C307.292 426.855 335.212 442.595 364.879 449.027C377.933 451.858 393.487 462.099 406.225 474.777C418.965 487.456 428.729 502.415 430.376 514.55C434.338 543.74 450.069 571.46 477.215 593.218C478.785 594.477 480.238 595.87 481.528 597.367C508.646 628.835 545.389 647.703 591.216 650.917L591.24 650.919C637.804 652.785 684.548 634.165 731.967 594.643L731.973 594.638L828.279 512.533L828.296 512.518L928.329 421.255L927.313 420.328L827.28 511.591L730.997 593.675C730.995 593.676 730.994 593.678 730.992 593.679C683.753 633.05 637.367 651.452 591.311 649.61C545.903 646.422 509.53 627.744 482.656 596.559C481.31 594.997 479.796 593.545 478.161 592.235C451.271 570.682 435.718 543.252 431.801 514.392C430.099 501.856 420.099 486.649 407.283 473.893C394.464 461.135 378.67 450.672 365.208 447.753C335.856 441.389 308.185 425.804 286.053 403.561C256.858 373.097 243.975 336.725 248.56 295.468C248.716 294.062 249.027 292.659 249.464 291.298C266.001 239.765 287.724 201.232 330.175 162.498L499.347 29.9571L498.41 28.9626L329.197 161.535Z" fill="url(#paint8_linear_7695_372)"/>
<path fill-rule="evenodd" clip-rule="evenodd" d="M301.866 143.31C252.46 188.384 227.492 233.253 214.574 287.981L214.565 288.022L214.561 288.063C210.159 335.095 225.799 376.375 260.079 410.595L260.085 410.601C286.38 436.189 319.306 453.722 354.026 459.916C367.547 462.328 383.982 473.06 397.323 486.452C410.666 499.846 420.725 515.711 421.709 528.233C424.42 562.742 441.653 595.979 473.134 622.256C474.158 623.111 475.133 624.031 476.031 624.995C508.353 659.685 550.376 679.349 601.455 681.419L601.471 681.42C653.457 682.457 705.418 660.653 757.95 615.531L757.954 615.528L862.966 524.041L862.978 524.03L970.785 425.675L969.769 424.748L861.961 523.103L756.964 614.576C704.604 659.552 652.99 681.135 601.509 680.11C550.846 678.055 509.194 658.568 477.124 624.148C476.187 623.141 475.169 622.181 474.102 621.291C442.882 595.232 425.825 562.304 423.141 528.142C422.123 515.176 411.798 499.037 398.384 485.572C384.968 472.105 368.273 461.124 354.299 458.631C319.912 452.496 287.248 435.12 261.135 409.709C227.138 375.77 211.633 334.867 215.988 288.219C228.851 233.754 253.684 189.126 302.87 144.249L491.525 -11.5164L490.561 -12.4884L301.866 143.31Z" fill="url(#paint9_linear_7695_372)"/>
<path fill-rule="evenodd" clip-rule="evenodd" d="M274.562 125.065C219 175.756 190.902 226.23 181.747 282.921L181.742 282.949L181.741 282.977C178.269 334.521 196.604 379.597 235.186 416.759L235.19 416.762C265.664 445.662 303.874 465.005 343.882 470.765C350.808 471.763 358.568 475.03 366.348 479.82C374.119 484.605 381.868 490.884 388.766 497.854C395.665 504.824 401.7 512.472 406.053 519.989C410.41 527.513 413.058 534.864 413.24 541.25C414.394 581.552 433.294 620.853 469.775 651.978C507.476 690.338 555.039 711.011 611.698 711.919L611.708 711.92C669.114 712.129 726.294 687.141 783.939 636.419L897.66 535.548L897.667 535.541L1013.25 430.093L1012.23 429.166L896.658 534.608L896.651 534.614L782.942 635.475C725.46 686.054 668.62 710.816 611.713 710.61C555.462 709.706 508.267 689.194 470.822 651.083L470.801 651.061L470.777 651.041C434.552 620.144 415.819 581.164 414.676 541.218C414.485 534.554 411.735 526.999 407.322 519.379C402.904 511.75 396.796 504.014 389.831 496.977C382.866 489.94 375.03 483.588 367.149 478.735C359.276 473.887 351.315 470.51 344.103 469.471C304.444 463.761 266.511 444.577 236.226 415.857C197.923 378.963 179.733 334.253 183.172 283.088C192.28 226.725 220.209 176.51 275.571 125.999C275.574 125.997 275.576 125.995 275.579 125.992L483.709 -52.9892L482.723 -53.9433L274.562 125.065Z" fill="url(#paint10_linear_7695_372)"/>
<path fill-rule="evenodd" clip-rule="evenodd" d="M247.257 106.824C185.539 163.13 154.307 219.211 148.92 277.864L148.918 277.891C146.375 333.948 167.406 382.82 210.29 422.925C245.11 455.255 288.851 476.415 334.346 481.55C341.418 482.348 349.404 485.589 357.424 490.463C365.435 495.333 373.434 501.804 380.527 509.008C387.621 516.211 393.794 524.131 398.164 531.89C402.54 539.657 405.081 547.214 404.979 553.705C404.265 599.391 424.233 644.464 464.859 680.421C507.763 721.546 560.41 742.705 621.936 742.423L621.94 742.423C684.768 741.804 747.166 713.633 809.926 657.31L932.351 547.059L1055.71 434.514L1054.69 433.587L931.338 546.128L808.917 656.376C746.317 712.556 684.253 740.499 621.922 741.113C560.805 741.392 508.53 720.388 465.888 679.509L465.868 679.49C425.507 643.773 405.707 599.04 406.415 553.727C406.521 546.936 403.872 539.159 399.441 531.293C395.005 523.418 388.756 515.406 381.594 508.133C374.433 500.861 366.344 494.313 358.218 489.374C350.102 484.44 341.901 481.083 334.519 480.25C289.39 475.156 245.94 454.158 211.317 422.011C168.708 382.163 147.831 333.645 150.352 277.962C155.707 219.701 186.73 163.898 248.273 107.751L475.887 -94.4569L474.885 -95.3963L247.257 106.824Z" fill="url(#paint11_linear_7695_372)"/>
</g>
<defs>
<linearGradient id="paint0_linear_7695_372" x1="521.358" y1="465.206" x2="590.171" y2="389.868" gradientUnits="userSpaceOnUse">
<stop stop-color="#D28B28"/>
<stop offset="1" stop-color="#D28B28" stop-opacity="0"/>
</linearGradient>
<linearGradient id="paint1_linear_7695_372" x1="470.715" y1="867.551" x2="864.363" y2="436.58" gradientUnits="userSpaceOnUse">
<stop stop-color="#D28B28"/>
<stop offset="1" stop-color="#D28B28" stop-opacity="0"/>
</linearGradient>
<linearGradient id="paint2_linear_7695_372" x1="521.212" y1="497.713" x2="616.353" y2="393.546" gradientUnits="userSpaceOnUse">
<stop stop-color="#D28B28"/>
<stop offset="1" stop-color="#D28B28" stop-opacity="0"/>
</linearGradient>
<linearGradient id="paint3_linear_7695_372" x1="519.381" y1="531.801" x2="642.265" y2="397.26" gradientUnits="userSpaceOnUse">
<stop stop-color="#D28B28"/>
<stop offset="1" stop-color="#D28B28" stop-opacity="0"/>
</linearGradient>
<linearGradient id="paint4_linear_7695_372" x1="516.285" y1="566.972" x2="667.541" y2="401.367" gradientUnits="userSpaceOnUse">
<stop stop-color="#D28B28"/>
<stop offset="1" stop-color="#D28B28" stop-opacity="0"/>
</linearGradient>
<linearGradient id="paint5_linear_7695_372" x1="512.218" y1="603.053" x2="692.576" y2="405.587" gradientUnits="userSpaceOnUse">
<stop stop-color="#D28B28"/>
<stop offset="1" stop-color="#D28B28" stop-opacity="0"/>
</linearGradient>
<linearGradient id="paint6_linear_7695_372" x1="507.421" y1="639.805" x2="717.422" y2="409.884" gradientUnits="userSpaceOnUse">
<stop stop-color="#D28B28"/>
<stop offset="1" stop-color="#D28B28" stop-opacity="0"/>
</linearGradient>
<linearGradient id="paint7_linear_7695_372" x1="502.324" y1="677.725" x2="742.372" y2="414.91" gradientUnits="userSpaceOnUse">
<stop stop-color="#D28B28"/>
<stop offset="1" stop-color="#D28B28" stop-opacity="0"/>
</linearGradient>
<linearGradient id="paint8_linear_7695_372" x1="496.312" y1="714.69" x2="766.71" y2="418.648" gradientUnits="userSpaceOnUse">
<stop stop-color="#D28B28"/>
<stop offset="1" stop-color="#D28B28" stop-opacity="0"/>
</linearGradient>
<linearGradient id="paint9_linear_7695_372" x1="490.227" y1="752.615" x2="791.206" y2="423.094" gradientUnits="userSpaceOnUse">
<stop stop-color="#D28B28"/>
<stop offset="1" stop-color="#D28B28" stop-opacity="0"/>
</linearGradient>
<linearGradient id="paint10_linear_7695_372" x1="483.904" y1="790.763" x2="815.642" y2="427.568" gradientUnits="userSpaceOnUse">
<stop stop-color="#D28B28"/>
<stop offset="1" stop-color="#D28B28" stop-opacity="0"/>
</linearGradient>
<linearGradient id="paint11_linear_7695_372" x1="477.386" y1="829.089" x2="840.024" y2="432.067" gradientUnits="userSpaceOnUse">
<stop stop-color="#D28B28"/>
<stop offset="1" stop-color="#D28B28" stop-opacity="0"/>
</linearGradient>
</defs>
</svg>