<svg width="24" height="24" viewBox="0 0 24 24" fill="none" xmlns="http://www.w3.org/2000/svg">
<path d="M16.0659 15.4295C16.0457 16.6572 21.3213 16.6056 21.3213 16.6056C21.3213 16.6056 21.3606 18.1668 19.2302 20.6526C16.4843 23.8577 10.5493 25.0435 8.57548 21.4005C8.32029 20.9455 8.17135 20.4392 8.13972 19.9192C8.1081 19.3991 8.19459 18.8787 8.39278 18.3965C8.6228 18.8916 8.92855 19.3483 9.29914 19.7503C9.94264 20.4422 10.7243 20.9929 11.5942 21.3671C10.8869 20.8643 10.2363 20.2871 9.65377 19.6454C9.23578 19.1325 8.91499 18.5484 8.70706 17.9215L9.09637 17.4016C10.0148 18.3667 11.0341 19.2316 12.137 19.9817C12.7939 20.4849 13.5678 20.8152 14.3871 20.9422C13.5994 20.7037 12.8672 20.3118 12.2331 19.7894C11.2185 18.9103 10.3178 17.9091 9.55188 16.8089C9.90284 16.3622 10.282 15.8975 10.6801 15.4054C11.2967 15.8402 11.9645 16.1985 12.6684 16.4724C13.5579 16.7964 14.4995 16.9559 15.4466 16.9429C14.5457 16.7133 13.6602 16.4273 12.7955 16.0866C12.1521 15.8218 11.58 15.4107 11.1251 14.8864C11.8645 13.9752 12.6502 13.0647 13.4453 12.1544C13.9642 12.4642 14.527 12.6945 15.1149 12.8375C15.6644 12.9893 16.2472 12.9732 16.7873 12.7912C16.2378 12.743 15.6968 12.6255 15.1771 12.4415C14.6953 12.2705 14.2631 11.9843 13.9186 11.6082C14.9882 10.3792 20.0685 4.71012 20.0685 4.71012L15.3448 9.59097C14.975 8.69408 14.7009 7.76109 14.527 6.80732C14.4386 6.12443 14.4688 5.43153 14.6164 4.75887C14.6164 4.75887 14.4834 5.50463 14.4096 6.60225C14.4426 7.74167 14.6269 8.87179 14.9579 9.96319L12.0577 12.9534C11.5539 12.1507 11.1144 11.3099 10.7433 10.4386C10.2423 9.10775 9.83652 7.74338 9.52896 6.35568C9.60402 7.66327 9.83843 8.957 10.227 10.2085C10.6012 11.3106 11.065 12.3805 11.6138 13.4078L9.60162 15.48C8.68844 14.5585 7.85079 13.5658 7.09668 12.5116C6.45475 11.2615 5.89285 9.97234 5.41436 8.65182C5.60416 10.0713 6.06378 11.4421 6.7687 12.6909C7.67324 14.1555 8.66348 15.4923 9.07244 16.0346L8.41116 16.7162C7.35232 16.2933 6.37065 15.7 5.50552 14.9601C4.44857 13.901 3.49148 12.7478 2.64626 11.5149C3.32702 12.8659 4.18373 14.1219 5.19428 15.2505C6.00204 15.9805 6.89222 16.6149 7.84697 17.1409C7.72755 17.2498 7.60518 17.3493 7.47988 17.4396C6.83513 17.5458 6.17429 17.5001 5.55047 17.3063C4.94701 17.0477 4.39601 16.6819 3.92451 16.2268C4.30596 16.8291 4.85669 17.3069 5.50847 17.6011C5.88568 17.776 6.28791 17.8916 6.70079 17.9439C2.55924 20.1842 -0.854359 14.8739 0.476198 10.2049C1.53039 6.52871 5.67221 3.14341 5.67221 3.14341C5.52782 4.37798 5.59516 5.62801 5.87137 6.84026C6.32678 8.50987 7.54078 11.4847 9.0384 11.3339C10.536 11.1831 6.2453 6.12617 6.83378 3.0979C7.33096 0.539049 12.6299 0.201529 12.6299 0.201529C12.2316 0.378915 11.8775 0.641365 11.5928 0.970229C11.3081 1.29909 11.0998 1.68629 10.9827 2.1043C10.4486 3.51753 11.5114 8.34591 12.6681 8.5958C14.1681 8.86058 11.092 3.36192 13.7924 1.22717C15.3355 0.00599308 17.362 1.57219 18.9595 2.12483C20.0127 2.45336 21.1311 2.51934 22.2159 2.31695C22.2159 2.31695 22.2855 3.16762 22.3746 5.08974C22.4636 7.01187 23.6307 8.32384 22.6736 9.49002C21.7164 10.6562 18.1894 9.97946 18.5162 11.0006C18.843 12.0217 22.7861 10.5538 22.7861 10.5538C22.7861 10.5538 22.7709 11.4769 22.6431 13.5986C22.5153 15.7203 16.0945 14.2572 16.0659 15.4295Z" fill="#0EA91E"/>
</svg>
