<svg width="24" height="24" viewBox="0 0 24 24" fill="none" xmlns="http://www.w3.org/2000/svg">
<path d="M19 11V17C19 19.2091 17.2091 21 15 21H12M19 11H12M19 11C20.1046 11 21 10.1046 21 9C21 7.89543 20.1046 7 19 7H5C3.89543 7 3 7.89543 3 9C3 10.1046 3.89543 11 5 11M5 11V17C5 19.2091 6.79086 21 9 21H12M5 11H12M12 11V21M12 5C12 6.10457 11.1046 7 10 7C8.89543 7 8 6.10457 8 5C8 3.89543 8.89543 3 10 3C11.1046 3 12 3.89543 12 5ZM12 5C12 6.10457 12.8954 7 14 7C15.1046 7 16 6.10457 16 5C16 3.89543 15.1046 3 14 3C12.8954 3 12 3.89543 12 5Z" stroke="black" stroke-width="2" stroke-linejoin="round"/>
</svg>
