<svg width="167" height="167" viewBox="0 0 167 167" fill="none" xmlns="http://www.w3.org/2000/svg">
<path d="M124.798 90.1316H90.1316V124.798C90.1316 128.611 87.0117 131.731 83.1984 131.731C79.3852 131.731 76.2652 128.611 76.2652 124.798V90.1316H41.5992C37.786 90.1316 34.666 87.0117 34.666 83.1984C34.666 79.3852 37.786 76.2652 41.5992 76.2652H76.2652V41.5992C76.2652 37.786 79.3852 34.666 83.1984 34.666C87.0117 34.666 90.1316 37.786 90.1316 41.5992V76.2652H124.798C128.611 76.2652 131.731 79.3852 131.731 83.1984C131.731 87.0117 128.611 90.1316 124.798 90.1316Z" fill="black"/>
</svg>
